<svg xmlns="http://www.w3.org/2000/svg" width="34" height="34" viewBox="0 0 34 34"><g transform="translate(-423 -478)"><circle cx="17" cy="17" r="17" transform="translate(423 478)" fill="#687c88"/><path d="M18.6,6a.829.829,0,0,1,.809.809V22.173a.829.829,0,0,1-.809.809H5.661a.829.829,0,0,1-.809-.809v-2.83H.809A.759.759,0,0,1,.243,19.1.759.759,0,0,1,0,18.534V10.448a.759.759,0,0,1,.243-.566.742.742,0,0,1,.566-.243H4.853V6.809A.829.829,0,0,1,5.661,6ZM4.853,15.526,6,17.677H7.732l-1.925-3.13L7.7,11.475H6.033L4.982,13.415l-.04.065-.032.073-.518-1.035-.534-1.043H2.095l1.836,3.089L1.925,17.677H3.672Zm6.672,6.243V19.343H6.066v2.426Zm0-3.639V15.1H9.705V18.13Zm0-4.246V10.852H9.705v3.033Zm0-4.246V7.213H6.066V9.639ZM18.2,21.769V19.343H12.738v2.426Zm0-3.639V15.1H12.738V18.13Zm0-4.246V10.852H12.738v3.033Zm0-4.246V7.213H12.738V9.639Z" transform="translate(430.295 480.509)" fill="#fff"/></g></svg>