<svg xmlns="http://www.w3.org/2000/svg" width="34" height="34"><g transform="translate(-423 -478)"><circle cx="17" cy="17" r="17" fill="#687c88" transform="translate(423 478)"/><path fill="#fff" d="M448.85 485.595a.918.918 0 0 1 .9.9v17.014a.918.918 0 0 1-.9.9h-14.329a.918.918 0 0 1-.9-.9v-3.135h-4.471a.84.84 0 0 1-.627-.269.84.84 0 0 1-.273-.626v-8.958a.84.84 0 0 1 .269-.626.822.822 0 0 1 .631-.269h4.475v-3.131a.918.918 0 0 1 .9-.9Zm-15.225 10.552 1.272 2.383h1.917l-2.132-3.467 2.1-3.4h-1.849l-1.165 2.15-.045.072-.036.081-.573-1.147-.591-1.155h-1.953l2.034 3.422-2.222 3.443h1.935Zm7.391 6.915v-2.688h-6.047v2.687Zm0-4.031v-3.359H439v3.359Zm0-4.7v-3.362H439v3.359Zm0-4.7v-2.692h-6.047v2.687Zm7.391 13.436v-2.693h-6.048v2.687Zm0-4.031v-3.364h-6.048v3.359Zm0-4.7v-3.367h-6.048v3.359Zm0-4.7v-2.697h-6.048v2.687Z"/></g></svg>