<svg xmlns="http://www.w3.org/2000/svg" width="34" height="34"><g transform="translate(-423 -478)"><circle cx="17" cy="17" r="17" fill="#687c88" transform="translate(423 478)"/><g fill="#fff"><path d="M444.139 491.915h-9.682a.692.692 0 0 1-.691-.691v-2.767a.692.692 0 0 1 .691-.691h9.681a.692.692 0 0 1 .692.692v2.766a.692.692 0 0 1-.691.691Zm-8.99-1.383h8.3v-1.424h-8.3ZM444.139 493.353h-9.682a.692.692 0 0 0-.691.692v2.711a.692.692 0 0 0 .692.692h7.856l2.517-2.559v-.844a.692.692 0 0 0-.692-.692Zm-.692 2.711h-8.3v-1.384h8.3Z"/><path d="M437.265 505.406v-.041l.221-.961h-5.103v-18.021h13.83v7.088l1.383-1.307v-6.473a.692.692 0 0 0-.692-.692h-15.213a.692.692 0 0 0-.692.692v19.362a.692.692 0 0 0 .692.692h5.532a2.379 2.379 0 0 1 .041-.339ZM444.83 496.873l-.539.546a.691.691 0 0 0 .539-.546Z"/><path d="M433.766 502.246a.692.692 0 0 0 .692.692h3.347l.207-.9.09-.38v-.035h-2.953v-1.41h4.384l1.383-1.383h-6.459a.692.692 0 0 0-.691.692ZM452.775 495.144l-2.33-2.33a1.113 1.113 0 0 0-1.577 0l-9.481 9.536-.781 3.326a1.113 1.113 0 0 0 .871 1.314 1.072 1.072 0 0 0 .214 0 .8.8 0 0 0 .256 0l3.354-.74 9.474-9.494a1.106 1.106 0 0 0 0-1.57Zm-10.181 9.847-2.531.56.615-2.51 7.116-7.185 1.95 1.95Zm7.925-7.966-1.95-1.95 1.1-1.086 1.964 1.964Z"/></g></g></svg>