<svg xmlns="http://www.w3.org/2000/svg" width="34" height="34" viewBox="0 0 34 34"><g transform="translate(-423 -478)"><circle cx="17" cy="17" r="17" transform="translate(423 478)" fill="#687c88"/><g transform="translate(429.778 482.822)"><path d="M16.969,11.588H8.6a.6.6,0,0,1-.6-.6V8.6A.6.6,0,0,1,8.6,8h8.371a.6.6,0,0,1,.6.6V10.99A.6.6,0,0,1,16.969,11.588ZM9.2,10.392h7.175V9.16H9.2Z" transform="translate(-2.942 -2.942)" fill="#fff"/><path d="M16.969,18.773H8.6a.6.6,0,0,0-.6.6v2.344a.6.6,0,0,0,.6.6h6.793L17.567,20.1v-.729A.6.6,0,0,0,16.969,18.773Zm-.6,2.344H9.2v-1.2h7.175Z" transform="translate(-2.942 -8.883)" fill="#fff"/><path d="M8.084,20.312v-.036l.191-.831H3.863V3.863H15.821V9.991l1.2-1.13v-5.6a.6.6,0,0,0-.6-.6H3.265a.6.6,0,0,0-.6.6V20.007a.6.6,0,0,0,.6.6H8.048a2.057,2.057,0,0,1,.036-.293Z" transform="translate(0 0)" fill="#fff"/><path d="M28.76,25.56l-.466.472A.6.6,0,0,0,28.76,25.56Z" transform="translate(-14.134 -12.627)" fill="#fff"/><path d="M8,32.287a.6.6,0,0,0,.6.6h2.894l.179-.777.078-.329v-.03H9.2v-1.22h3.791l1.2-1.2H8.6a.6.6,0,0,0-.6.6Z" transform="translate(-2.942 -14.708)" fill="#fff"/><path d="M29.561,19.4l-2.015-2.015a.963.963,0,0,0-1.363,0l-8.2,8.246-.676,2.876a.963.963,0,0,0,.753,1.136.927.927,0,0,0,.185,0,.688.688,0,0,0,.221,0l2.9-.64,8.192-8.21a.957.957,0,0,0,0-1.357Zm-8.8,8.515-2.188.484.532-2.171,6.147-6.213L26.936,21.7Zm6.852-6.888-1.686-1.686.951-.939,1.7,1.7Z" transform="translate(-8.065 -7.962)" fill="#fff"/></g></g></svg>