<svg xmlns="http://www.w3.org/2000/svg" width="34" height="34" viewBox="0 0 34 34"><g transform="translate(-423 -478)"><circle cx="17" cy="17" r="17" transform="translate(423 478)" fill="#687c88"/><g transform="translate(424.04 481.05)"><path d="M16.16,29.36a1.49,1.49,0,0,0-.37.036v1.172a1.355,1.355,0,0,0,.3.023c.477,0,.77-.241.77-.648C16.861,29.579,16.608,29.36,16.16,29.36Zm3.47.012a1.836,1.836,0,0,0-.4.036V32a1.625,1.625,0,0,0,.311.018,1.23,1.23,0,0,0,1.342-1.389,1.139,1.139,0,0,0-1.249-1.262Z" transform="translate(-3.914 -12.743)" fill="#fff"/><path d="M17.95,4H9.99A1.99,1.99,0,0,0,8,5.99V21.91A1.99,1.99,0,0,0,9.99,23.9H21.93a1.99,1.99,0,0,0,1.99-1.99V9.97Zm-4.48,14.119a1.845,1.845,0,0,1-1.29.418,2.219,2.219,0,0,1-.306-.018v1.419h-.89V16.022A7.521,7.521,0,0,1,12.2,15.94a1.907,1.907,0,0,1,1.214.317,1.163,1.163,0,0,1,.424.918A1.276,1.276,0,0,1,13.471,18.119Zm3.788,1.348a2.849,2.849,0,0,1-1.831.512,7.666,7.666,0,0,1-1.019-.06v-3.9a7.907,7.907,0,0,1,1.213-.083,2.552,2.552,0,0,1,1.625.424,1.755,1.755,0,0,1,.672,1.5A2.014,2.014,0,0,1,17.259,19.468Zm3.677-2.761H19.411v.906h1.425v.73H19.411v1.6h-.9V15.97h2.426ZM17.95,10.965h-1V5.99l4.975,4.975Z" fill="#fff"/></g></g></svg>