<svg xmlns="http://www.w3.org/2000/svg" width="34" height="34"><g transform="translate(-423 -478)"><circle cx="17" cy="17" r="17" fill="#687c88" transform="translate(423 478)"/><g fill="#fff"><path d="M436.716 498.051a1.719 1.719 0 0 0-.427.041v1.352a1.563 1.563 0 0 0 .347.026c.55 0 .888-.278.888-.747 0-.42-.292-.672-.808-.672Zm4 .014a2.117 2.117 0 0 0-.467.041v3a1.874 1.874 0 0 0 .359.021 1.418 1.418 0 0 0 1.548-1.6 1.313 1.313 0 0 0-1.44-1.455Z"/><path d="M443.294 483.5h-9.175a2.3 2.3 0 0 0-2.3 2.3v18.36a2.3 2.3 0 0 0 2.3 2.3h13.77a2.3 2.3 0 0 0 2.3-2.3v-13.775Zm-5.166 16.283a2.127 2.127 0 0 1-1.487.482 2.559 2.559 0 0 1-.353-.021v1.636h-1.026v-4.516a8.673 8.673 0 0 1 1.4-.094 2.2 2.2 0 0 1 1.4.366 1.342 1.342 0 0 1 .487 1.064 1.471 1.471 0 0 1-.421 1.083Zm4.369 1.555a3.285 3.285 0 0 1-2.111.591 8.841 8.841 0 0 1-1.175-.069v-4.494a9.119 9.119 0 0 1 1.4-.1 2.943 2.943 0 0 1 1.874.489 2.024 2.024 0 0 1 .775 1.726 2.322 2.322 0 0 1-.763 1.857Zm4.24-3.184h-1.758v1.046h1.64v.842h-1.64v1.841h-1.04V497.3h2.8Zm-3.443-6.621h-1.147V485.8l5.738 5.738Z"/></g></g></svg>