<svg xmlns="http://www.w3.org/2000/svg" width="34" height="34" viewBox="0 0 34 34"><g transform="translate(-423 -478)"><circle cx="17" cy="17" r="17" transform="translate(423 478)" fill="#687c88"/><path d="M8.333,0,0,4.833V14.5l8.333,4.832L16.666,14.5V4.833Zm5.584,10.492a1.136,1.136,0,0,1-.1.465,1.236,1.236,0,0,1-.642.642,1.15,1.15,0,0,1-.474.1H8.44L5.391,9.881h6.714V7.948H4.613v6.857L2.748,13.7l.021-6.349a1.1,1.1,0,0,1,.1-.476A1.263,1.263,0,0,1,3.14,6.49a1.3,1.3,0,0,1,.392-.26,1.2,1.2,0,0,1,.479-.1h8.694a1.169,1.169,0,0,1,.474.1,1.237,1.237,0,0,1,.642.643,1.162,1.162,0,0,1,.1.476Z" transform="translate(431.667 485.335)" fill="#fff"/></g></svg>