<svg xmlns="http://www.w3.org/2000/svg" width="34" height="34"><g transform="translate(-423 -478)"><circle cx="17" cy="17" r="17" fill="#687c88" transform="translate(423 478)"/><path fill="#fff" d="m440 482.003-11.205 6.5v13l11.205 6.5 11.2-6.5v-13Zm7.509 14.108a1.528 1.528 0 0 1-.13.625 1.662 1.662 0 0 1-.863.864 1.547 1.547 0 0 1-.637.13h-5.735l-4.1-2.439h9.029v-2.6h-10.078v9.221l-2.5-1.49.028-8.537a1.485 1.485 0 0 1 .137-.64 1.7 1.7 0 0 1 .362-.515 1.751 1.751 0 0 1 .527-.35 1.619 1.619 0 0 1 .644-.13h11.687a1.572 1.572 0 0 1 .637.13 1.663 1.663 0 0 1 .863.864 1.562 1.562 0 0 1 .13.64Z"/></g></svg>