<svg xmlns="http://www.w3.org/2000/svg" width="34" height="34" viewBox="0 0 34 34"><g transform="translate(-423 -478)"><circle cx="17" cy="17" r="17" transform="translate(423 478)" fill="#687c88"/><g transform="translate(430.395 480.595)"><g transform="translate(0 6)"><path d="M10.806,6a8.275,8.275,0,0,1,2.237.3,8.425,8.425,0,0,1,5.868,5.868,8.488,8.488,0,0,1,0,4.475,8.425,8.425,0,0,1-5.868,5.868,8.413,8.413,0,0,1-6.125-.652,8.468,8.468,0,0,1-3.007-2.65H.8a.768.768,0,0,1-.564-.235A.768.768,0,0,1,0,18.411V10.4a.768.768,0,0,1,.235-.563A.768.768,0,0,1,.8,9.6H3.911a8.479,8.479,0,0,1,3.007-2.65A8.379,8.379,0,0,1,10.806,6Zm.6,1.229V13.8h6.576a7.055,7.055,0,0,0-.661-2.462A7.223,7.223,0,0,0,13.864,7.89a7.1,7.1,0,0,0-2.457-.661Zm-4.212,6.06a2.183,2.183,0,0,0-.183-.933,1.682,1.682,0,0,0-.5-.632,2.093,2.093,0,0,0-.751-.357,3.725,3.725,0,0,0-.938-.112H2.28v6.294H3.753V15.353h.994a2.991,2.991,0,0,0,.9-.136,2.585,2.585,0,0,0,.783-.395,1.974,1.974,0,0,0,.559-.642,1.826,1.826,0,0,0,.211-.892Zm3.612,8.321a7.082,7.082,0,0,0,1.811-.23,7.173,7.173,0,0,0,1.646-.656,7.273,7.273,0,0,0,2.557-2.355A7.141,7.141,0,0,0,17.983,15H10.216V7.229A7.065,7.065,0,0,0,7.6,7.956,7.234,7.234,0,0,0,5.441,9.6H8.808a.8.8,0,0,1,.8.8v8.011a.8.8,0,0,1-.8.8H5.441a7.2,7.2,0,0,0,1.13,1.017,7.418,7.418,0,0,0,1.3.756A7.028,7.028,0,0,0,9.3,21.45,7.176,7.176,0,0,0,10.806,21.609ZM4.652,12.482a1.3,1.3,0,0,1,.732.183.751.751,0,0,1,.272.671.583.583,0,0,1-.1.352.764.764,0,0,1-.248.22,1.064,1.064,0,0,1-.338.117,2.067,2.067,0,0,1-.356.033H3.752V12.482Z" transform="translate(0 -6)" fill="#fff"/></g></g></g></svg>