<svg xmlns="http://www.w3.org/2000/svg" width="34" height="34"><g transform="translate(-423 -478)"><circle cx="17" cy="17" r="17" fill="#687c88" transform="translate(423 478)"/><path fill="#fff" d="M453.538 496.567a6.032 6.032 0 0 1-.5 2.437 6.358 6.358 0 0 1-3.336 3.337 6.043 6.043 0 0 1-2.437.5 6.238 6.238 0 0 1-1.591-.209 5.367 5.367 0 0 1-.582 1.941 5.5 5.5 0 0 1-2.884 2.6 5.36 5.36 0 0 1-2 .374 5.292 5.292 0 0 1-2.137-.435 5.53 5.53 0 0 1-2.909-2.923 5.292 5.292 0 0 1-.435-2.137q0-.2.019-.392t.042-.392h-5.284a1 1 0 0 1-.735-.306 1 1 0 0 1-.307-.734v-10.456a1 1 0 0 1 .306-.735 1 1 0 0 1 .735-.306h3.7a6.772 6.772 0 0 1 .759-2.479 7.211 7.211 0 0 1 1.553-1.99 7.1 7.1 0 0 1 2.147-1.323 7.046 7.046 0 0 1 5.3.079 7.086 7.086 0 0 1 3.75 3.754 6.823 6.823 0 0 1 .557 2.743q0 .2-.013.392t-.037.392a6.188 6.188 0 0 1 2.449.49 6.47 6.47 0 0 1 2.015 1.333 6.2 6.2 0 0 1 1.358 1.989 6.107 6.107 0 0 1 .497 2.456Zm-13.322-12.538a5.358 5.358 0 0 0-1.94.355 5.473 5.473 0 0 0-1.648.985 5.608 5.608 0 0 0-1.205 1.493 5.379 5.379 0 0 0-.629 1.867h5.168a1.045 1.045 0 0 1 1.039 1.043v5.167l.219-.037a6.267 6.267 0 0 1 .637-1.488 6.426 6.426 0 0 1 .986-1.273 6.5 6.5 0 0 1 1.267-.986 6.1 6.1 0 0 1 1.494-.637 5.521 5.521 0 0 0 .1-1 5.291 5.291 0 0 0-.435-2.137 5.53 5.53 0 0 0-2.915-2.919 5.3 5.3 0 0 0-2.138-.433Zm-5.363 15.048a5.29 5.29 0 0 0 1.109-.115 2.958 2.958 0 0 0 .974-.387 2.087 2.087 0 0 0 .692-.709 2.119 2.119 0 0 0 .263-1.1 2.046 2.046 0 0 0-.275-1.1 2.533 2.533 0 0 0-.692-.735 4.265 4.265 0 0 0-.894-.484l-.893-.355a3.7 3.7 0 0 1-.692-.349.544.544 0 0 1-.276-.465.428.428 0 0 1 .146-.337 1.088 1.088 0 0 1 .35-.2 1.845 1.845 0 0 1 .422-.1 3.563 3.563 0 0 1 1.469.135 4.825 4.825 0 0 1 .993.477v-1.865q-.296-.086-.547-.146t-.5-.1a5.01 5.01 0 0 0-.508-.062q-.259-.018-.578-.018a5.183 5.183 0 0 0-1.1.122 3.442 3.442 0 0 0-1.024.388 2.218 2.218 0 0 0-.747.71 1.926 1.926 0 0 0-.283 1.08 1.854 1.854 0 0 0 .275 1.042 2.676 2.676 0 0 0 .693.71 4.822 4.822 0 0 0 .893.5l.894.379a3.709 3.709 0 0 1 .692.374.573.573 0 0 1 .275.477.51.51 0 0 1-.129.367.846.846 0 0 1-.324.209 1.534 1.534 0 0 1-.411.091q-.214.019-.386.019a3.278 3.278 0 0 1-1.3-.244 6.83 6.83 0 0 1-1.157-.649v1.959a7.022 7.022 0 0 0 2.583.489Zm5.363 6.894a3.8 3.8 0 0 0 1.518-.306 3.951 3.951 0 0 0 1.243-.839 4.008 4.008 0 0 0 .844-1.249 3.774 3.774 0 0 0 .312-1.524 3.85 3.85 0 0 0-.233-1.334 3.894 3.894 0 0 0-.648-1.145 4 4 0 0 0-.993-.863 3.94 3.94 0 0 0-1.261-.5v2.02a1.045 1.045 0 0 1-1.036 1.038h-3.591a4.262 4.262 0 0 0-.073.784 3.84 3.84 0 0 0 .306 1.524 3.907 3.907 0 0 0 2.088 2.085 3.84 3.84 0 0 0 1.524.306Zm7.053-4.7a4.575 4.575 0 0 0 1.824-.368 4.725 4.725 0 0 0 2.51-2.5 4.724 4.724 0 0 0 0-3.655 4.708 4.708 0 0 0-2.51-2.51 4.575 4.575 0 0 0-1.824-.376 4.476 4.476 0 0 0-1.818.373 4.836 4.836 0 0 0-2.511 2.511 4.476 4.476 0 0 0-.373 1.818q0 .135.006.27t.018.27a5.6 5.6 0 0 1 1.066.679 5.447 5.447 0 0 1 .876.893 5.656 5.656 0 0 1 1.059 2.271 4.594 4.594 0 0 0 1.677.322Z"/></g></svg>