<svg xmlns="http://www.w3.org/2000/svg" width="34" height="34" viewBox="0 0 34 34"><g transform="translate(-423 -478)"><circle cx="17" cy="17" r="17" transform="translate(423 478)" fill="#687c88"/><path d="M19.414,10.92a4.67,4.67,0,0,1-.384,1.886,4.922,4.922,0,0,1-2.583,2.584,4.678,4.678,0,0,1-1.886.383,4.829,4.829,0,0,1-1.232-.162,4.155,4.155,0,0,1-.451,1.5,4.255,4.255,0,0,1-2.233,2.009,4.149,4.149,0,0,1-1.545.29,4.1,4.1,0,0,1-1.654-.337A4.281,4.281,0,0,1,5.19,16.821a4.1,4.1,0,0,1-.337-1.654q0-.152.015-.3t.032-.3H.806a.776.776,0,0,1-.569-.237A.778.778,0,0,1,0,13.755v-8.1A.776.776,0,0,1,.237,5.09a.776.776,0,0,1,.569-.237H3.669a5.243,5.243,0,0,1,.587-1.92,5.583,5.583,0,0,1,1.2-1.54A5.5,5.5,0,0,1,7.124.37a5.455,5.455,0,0,1,4.1.061,5.486,5.486,0,0,1,2.906,2.906A5.282,5.282,0,0,1,14.56,5.46q0,.152-.01.3t-.028.3a4.791,4.791,0,0,1,1.9.379,5.009,5.009,0,0,1,1.56,1.033,4.8,4.8,0,0,1,1.052,1.54A4.728,4.728,0,0,1,19.414,10.92ZM9.1,1.213a4.148,4.148,0,0,0-1.5.275,4.237,4.237,0,0,0-1.276.763,4.342,4.342,0,0,0-.933,1.157A4.165,4.165,0,0,0,4.9,4.853h4a.809.809,0,0,1,.806.806v4l.17-.028a4.852,4.852,0,0,1,.493-1.152,4.975,4.975,0,0,1,.764-.985,5.028,5.028,0,0,1,.981-.764,4.721,4.721,0,0,1,1.157-.493,4.275,4.275,0,0,0,.075-.777,4.1,4.1,0,0,0-.337-1.654A4.281,4.281,0,0,0,10.755,1.55,4.1,4.1,0,0,0,9.1,1.213ZM4.948,12.863a4.1,4.1,0,0,0,.857-.09,2.29,2.29,0,0,0,.754-.3,1.616,1.616,0,0,0,.535-.549,1.64,1.64,0,0,0,.2-.853,1.584,1.584,0,0,0-.213-.853A1.961,1.961,0,0,0,6.55,9.65a3.3,3.3,0,0,0-.692-.375L5.166,9a2.867,2.867,0,0,1-.535-.27.421.421,0,0,1-.214-.36.331.331,0,0,1,.113-.261A.842.842,0,0,1,4.8,7.953a1.428,1.428,0,0,1,.327-.076,2.758,2.758,0,0,1,1.137.1,3.735,3.735,0,0,1,.768.37V6.91q-.228-.066-.422-.113t-.384-.081a3.879,3.879,0,0,0-.393-.048q-.2-.014-.451-.014a4.013,4.013,0,0,0-.853.095,2.665,2.665,0,0,0-.792.3,1.717,1.717,0,0,0-.578.55,1.491,1.491,0,0,0-.222.833,1.435,1.435,0,0,0,.213.806,2.072,2.072,0,0,0,.536.55,3.733,3.733,0,0,0,.692.383l.692.294a2.872,2.872,0,0,1,.535.29.444.444,0,0,1,.213.37.394.394,0,0,1-.1.284.655.655,0,0,1-.251.162,1.188,1.188,0,0,1-.318.07q-.166.015-.3.015a2.538,2.538,0,0,1-1.01-.189,5.287,5.287,0,0,1-.9-.5v1.517a5.437,5.437,0,0,0,2,.379ZM9.1,18.2a2.938,2.938,0,0,0,1.175-.237,3.059,3.059,0,0,0,.963-.65,3.1,3.1,0,0,0,.654-.967,2.922,2.922,0,0,0,.242-1.18,2.98,2.98,0,0,0-.18-1.033,3.015,3.015,0,0,0-.5-.887,3.094,3.094,0,0,0-.768-.668,3.05,3.05,0,0,0-.976-.388v1.564a.809.809,0,0,1-.806.806H6.123a3.3,3.3,0,0,0-.057.607,2.973,2.973,0,0,0,.237,1.18A3.025,3.025,0,0,0,7.92,17.963,2.973,2.973,0,0,0,9.1,18.2Zm5.46-3.64a3.542,3.542,0,0,0,1.412-.285,3.658,3.658,0,0,0,1.943-1.938,3.657,3.657,0,0,0,0-2.83,3.645,3.645,0,0,0-1.943-1.943A3.542,3.542,0,0,0,14.56,7.28a3.465,3.465,0,0,0-1.407.289,3.744,3.744,0,0,0-1.944,1.944,3.465,3.465,0,0,0-.289,1.407q0,.1,0,.209t.014.209a4.338,4.338,0,0,1,.825.526,4.217,4.217,0,0,1,.678.692,4.379,4.379,0,0,1,.82,1.759A3.557,3.557,0,0,0,14.56,14.56Z" transform="translate(430.293 485.293)" fill="#fff"/></g></svg>