<svg xmlns="http://www.w3.org/2000/svg" width="34" height="34" viewBox="0 0 34 34"><g transform="translate(-423 -478)"><circle cx="17" cy="17" r="17" transform="translate(423 478)" fill="#687c88"/><path d="M18.477,12a.8.8,0,0,1,.8.8V28.067a.8.8,0,0,1-.8.8H5.619a.8.8,0,0,1-.8-.8V25.253H.8a.77.77,0,0,1-.565-.235A.77.77,0,0,1,0,24.453V16.414a.77.77,0,0,1,.235-.565A.77.77,0,0,1,.8,15.614H4.819V12.8a.8.8,0,0,1,.8-.8ZM4.847,19.793l1.158,3.8H7.323l1.261-6.326H7.258l-.753,3.737L5.441,17.393H4.321L3.192,21.026l-.753-3.755H1.054L2.315,23.6H3.633Zm13.224,7.869v-2.41H6.024v2.41Zm0-3.614V21.036H9.638v3.012Zm0-4.217V16.819H9.638v3.012Zm0-4.217V13.2H6.024v2.41Z" transform="translate(430.362 474.567)" fill="#fff"/></g></svg>