<svg xmlns="http://www.w3.org/2000/svg" width="34" height="34"><g transform="translate(-423 -478)"><circle cx="17" cy="17" r="17" fill="#687c88" transform="translate(423 478)"/><path fill="#fff" d="M448.857 485.594a.9.9 0 0 1 .892.892v17.027a.9.9 0 0 1-.892.892h-14.339a.9.9 0 0 1-.892-.892v-3.139h-4.483a.859.859 0 0 1-.63-.262.859.859 0 0 1-.262-.63v-8.965a.859.859 0 0 1 .262-.63.859.859 0 0 1 .63-.262h4.483v-3.139a.9.9 0 0 1 .892-.892Zm-15.2 8.692 1.294 4.241h1.467l1.406-7.055h-1.479l-.839 4.168-1.187-4.031h-1.249l-1.259 4.052-.84-4.188h-1.545l1.406 7.053h1.47Zm14.749 8.776v-2.688h-13.437v2.687Zm0-4.031v-3.36H439v3.359Zm0-4.7v-3.362H439v3.359Zm0-4.7v-2.693h-13.437v2.687Z"/></g></svg>