<svg xmlns="http://www.w3.org/2000/svg" width="21.56" height="21.56" viewBox="0 0 21.56 21.56"><path d="M3.931,0C2.392,0,1.4-.17.616.631S0,2.153,0,3.931-.009,15.243,0,17.6s-.072,2.544.646,3.3,1.608.65,3.285.633,7.406,0,7.406,0V13.114H9.112v-3.03h2.225V7.494c0-2.034,1.315-3.9,4.344-3.9a18.367,18.367,0,0,1,2.133.118l-.071,2.83s-.925-.009-1.934-.009c-1.092,0-1.267.5-1.267,1.339v2.213h3.288l-.143,3.03H14.541v8.417s.656.023,3.055,0,2.581.055,3.306-.627.623-1.191.625-3.3,0-12.11,0-13.668.163-2.277-.5-3.189S18.86-.005,17.6,0,5.469,0,3.93,0Z" transform="translate(0.016 0.015)" fill="currentColor"/></svg>