<svg xmlns="http://www.w3.org/2000/svg" width="21.56" height="21.56" viewBox="0 0 21.56 21.56"><g transform="translate(-5.994 -5.962)"><path d="M27.554,12.275V7.9a2.937,2.937,0,0,0-.663-1.349,2.64,2.64,0,0,0-1.33-.587H7.881a2.577,2.577,0,0,0-1.246.588,2.922,2.922,0,0,0-.642,1.282V25.416a2.739,2.739,0,0,0,.61,1.473,2.872,2.872,0,0,0,1.49.633H25.6a2.924,2.924,0,0,0,1.329-.646,2.771,2.771,0,0,0,.63-1.309V12.275ZM16.766,22.243A5.526,5.526,0,1,1,22.3,16.717,5.529,5.529,0,0,1,16.766,22.243Zm5.755-9.967a1.288,1.288,0,1,1,1.289-1.288A1.291,1.291,0,0,1,22.521,12.275Z" transform="translate(0)" fill="#a6aaad"/><circle cx="3.589" cy="3.589" r="3.589" transform="translate(13.176 13.128)" fill="#a6aaad"/></g></svg>