<svg xmlns="http://www.w3.org/2000/svg" width="21.56" height="21.56" viewBox="0 0 21.56 21.56"><path d="M18.329,18.654V12.53a3.8,3.8,0,0,0-3.787-3.8,3.044,3.044,0,0,0-1.515.43,3.153,3.153,0,0,0-1.161,1.088V8.937H8.634v9.717h3.231V12.935A1.6,1.6,0,0,1,12.32,11.8a1.5,1.5,0,0,1,1.136-.481,1.58,1.58,0,0,1,1.161.481,1.558,1.558,0,0,1,.48,1.139v5.719ZM4.847,7.115a1.936,1.936,0,0,0,1.389-.557,1.819,1.819,0,0,0,.581-1.366A1.9,1.9,0,0,0,6.236,3.8a1.947,1.947,0,0,0-2.777,0,1.9,1.9,0,0,0-.581,1.392,1.819,1.819,0,0,0,.581,1.366A1.936,1.936,0,0,0,4.847,7.115ZM6.463,18.654V8.937H3.231v9.717ZM19.389.333a2.093,2.093,0,0,1,1.54.633,2.044,2.044,0,0,1,.631,1.493V19.768a2.044,2.044,0,0,1-.631,1.493,2.093,2.093,0,0,1-1.54.633H2.171a2.093,2.093,0,0,1-1.54-.633A2.044,2.044,0,0,1,0,19.768V2.459A2.044,2.044,0,0,1,.631.966,2.093,2.093,0,0,1,2.171.333Z" transform="translate(0 -0.333)" fill="#a6aaad"/></svg>