<svg xmlns="http://www.w3.org/2000/svg" width="21.56" height="21.56" viewBox="0 0 21.56 21.56"><path d="M2.013,0h17.4a2.994,2.994,0,0,1,1.531.665,2.743,2.743,0,0,1,.6,1.506l.016,17.37a2.884,2.884,0,0,1-.609,1.381,2.685,2.685,0,0,1-1.33.638H2a2.616,2.616,0,0,1-1.465-.676A2.964,2.964,0,0,1,0,19.291V1.9A2.68,2.68,0,0,1,.655.615,3,3,0,0,1,2.013,0Z" fill="#a6aaad"/><g transform="translate(2 5.531)"><g transform="translate(0.024)"><path d="M500,9.718h.748V6.96h4.162v.717h-4.047l1.1.829h3.272a.989.989,0,0,0,.265-.213,1.054,1.054,0,0,0,.163-.306V6.644a.779.779,0,0,0-.163-.275.633.633,0,0,0-.265-.139h-4.907a.473.473,0,0,0-.232.139.59.59,0,0,0-.095.275Z" transform="translate(-500 -5.898)" fill="#495761" stroke="#4a5863" stroke-width="0.2"/><path d="M504.409,9.805h.729V7.232l4.869,2.9V6.278h-.719V8.817l-4.878-2.832Z" transform="translate(-498.155 -5.985)" fill="#495761" stroke="#4a5863" stroke-width="0.2"/><path d="M508.763,6.167l2.381,2.012V9.67h.8V8.179l2.383-2.012h-1.311L511.516,7.45l-1.553-1.283Z" transform="translate(-496.333 -5.92)" fill="#495761" stroke="#4a5863" stroke-width="0.2"/></g><path d="M1.033-1.429V-2.937h1.3a3.277,3.277,0,0,1,.4.023.909.909,0,0,1,.332.1.575.575,0,0,1,.226.226.816.816,0,0,1,.082.4.676.676,0,0,1-.243.568,1.315,1.315,0,0,1-.8.189ZM.382-3.469V1.276H2.747a1.647,1.647,0,0,0,.641-.116A1.425,1.425,0,0,0,3.854.854,1.261,1.261,0,0,0,4.138.419a1.378,1.378,0,0,0,.1-.505,1.169,1.169,0,0,0-.24-.744,1.133,1.133,0,0,0-.692-.4v-.013a1.106,1.106,0,0,0,.538-.409,1.132,1.132,0,0,0,.188-.655,1.047,1.047,0,0,0-.168-.6A1.258,1.258,0,0,0,3.453-3.3a.853.853,0,0,0-.264-.1,2.826,2.826,0,0,0-.332-.05q-.178-.017-.36-.02t-.339,0ZM1.033.745V-.9H2.521a2.12,2.12,0,0,1,.4.037,1.009,1.009,0,0,1,.339.126.68.68,0,0,1,.236.243.756.756,0,0,1,.089.385A.811.811,0,0,1,3.34.519a.954.954,0,0,1-.675.226ZM5.077-3.469V1.276H8.319V.745H5.728V-3.469ZM9.265-1.1a2.658,2.658,0,0,1,.1-.708,1.9,1.9,0,0,1,.3-.628,1.528,1.528,0,0,1,.528-.449,1.628,1.628,0,0,1,.768-.169,1.628,1.628,0,0,1,.768.169,1.528,1.528,0,0,1,.528.449,1.9,1.9,0,0,1,.3.628,2.658,2.658,0,0,1,.1.708,2.658,2.658,0,0,1-.1.708,1.9,1.9,0,0,1-.3.628,1.528,1.528,0,0,1-.528.449,1.628,1.628,0,0,1-.768.169A1.628,1.628,0,0,1,10.19.688,1.528,1.528,0,0,1,9.662.24a1.9,1.9,0,0,1-.3-.628A2.658,2.658,0,0,1,9.265-1.1Zm-.651,0a2.973,2.973,0,0,0,.147.934A2.332,2.332,0,0,0,9.2.632a2.114,2.114,0,0,0,.733.548,2.412,2.412,0,0,0,1.021.2,2.412,2.412,0,0,0,1.021-.2,2.114,2.114,0,0,0,.733-.548,2.332,2.332,0,0,0,.442-.794A2.973,2.973,0,0,0,13.3-1.1a2.973,2.973,0,0,0-.147-.934,2.332,2.332,0,0,0-.442-.794,2.15,2.15,0,0,0-.733-.552,2.379,2.379,0,0,0-1.021-.206,2.379,2.379,0,0,0-1.021.206,2.15,2.15,0,0,0-.733.552,2.332,2.332,0,0,0-.442.794A2.973,2.973,0,0,0,8.614-1.1ZM17.756.685l.171.591h.411v-2.5H16.194v.532h1.563a1.568,1.568,0,0,1-.089.608,1.377,1.377,0,0,1-.3.492,1.425,1.425,0,0,1-.5.329,1.793,1.793,0,0,1-.679.12A1.6,1.6,0,0,1,15.464.7,1.569,1.569,0,0,1,14.94.283a1.846,1.846,0,0,1-.322-.6,2.327,2.327,0,0,1-.11-.714,2.882,2.882,0,0,1,.1-.741,1.957,1.957,0,0,1,.3-.645,1.522,1.522,0,0,1,.521-.455,1.582,1.582,0,0,1,.764-.173,2.053,2.053,0,0,1,.517.063,1.446,1.446,0,0,1,.435.189,1.128,1.128,0,0,1,.322.322,1.219,1.219,0,0,1,.178.469h.651a1.881,1.881,0,0,0-.257-.714,1.7,1.7,0,0,0-.466-.488,1.927,1.927,0,0,0-.631-.282,3.037,3.037,0,0,0-.75-.09,2.324,2.324,0,0,0-1.018.209,2.121,2.121,0,0,0-.726.562A2.4,2.4,0,0,0,14-1.99,3.27,3.27,0,0,0,13.857-1a2.6,2.6,0,0,0,.158.9,2.3,2.3,0,0,0,.459.764,2.211,2.211,0,0,0,.733.528,2.346,2.346,0,0,0,.98.2,2.378,2.378,0,0,0,.857-.163A1.621,1.621,0,0,0,17.756.685Z" transform="translate(-0.382 9.115)" fill="#4a5863" stroke="#4a5863" stroke-width="0.4"/></g></svg>