<svg xmlns="http://www.w3.org/2000/svg" width="21.56" height="21.56" viewBox="0 0 21.56 21.56"><path d="M16.915,8.229A5.457,5.457,0,0,0,18.329,6.71a6.146,6.146,0,0,1-1.565.455,3.148,3.148,0,0,0,1.212-1.62,6.154,6.154,0,0,1-1.868.709,2.4,2.4,0,0,0-1.565-.835,3.222,3.222,0,0,0-1.792.253,2.93,2.93,0,0,0-1.338,1.265,2.59,2.59,0,0,0-.252,1.948A8.644,8.644,0,0,1,5.2,5.9a2.841,2.841,0,0,0-.227,2.2A2.621,2.621,0,0,0,6.059,9.747a3.725,3.725,0,0,1-1.212-.354,2.9,2.9,0,0,0,2.222,2.885,2.941,2.941,0,0,1-1.212.051,2.859,2.859,0,0,0,2.676,2.024,4.92,4.92,0,0,1-1.969.987,5.6,5.6,0,0,1-2.272.177,8.009,8.009,0,0,0,4.645,1.316,7.975,7.975,0,0,0,5.731-2.505A8.763,8.763,0,0,0,16.915,8.229Zm2.474-7.9a2.093,2.093,0,0,1,1.54.633,2.044,2.044,0,0,1,.631,1.493V19.768a2.044,2.044,0,0,1-.631,1.493,2.093,2.093,0,0,1-1.54.633H2.171a2.093,2.093,0,0,1-1.54-.633A2.044,2.044,0,0,1,0,19.768V2.459A2.044,2.044,0,0,1,.631.966,2.093,2.093,0,0,1,2.171.333Z" transform="translate(0 -0.333)" fill="#a6aaad"/></svg>