<svg xmlns="http://www.w3.org/2000/svg" width="21.56" height="21.56" viewBox="0 0 21.56 21.56"><path d="M12.88,16.463v-2.2q0-.7-.406-.7a.657.657,0,0,0-.462.224v3.139a.657.657,0,0,0,.462.224Q12.88,17.15,12.88,16.463Zm2.579-1.709h.925v-.476q0-.715-.462-.715t-.462.715Zm-8-3.727v.981H6.335v5.927H5.3V12.008H4.2v-.981Zm2.817,1.765v5.142H9.334v-.56A1.49,1.49,0,0,1,8.269,18a.551.551,0,0,1-.589-.392,2.466,2.466,0,0,1-.084-.757V12.792h.925v3.783a2.118,2.118,0,0,0,.014.364q.014.21.21.21.28,0,.589-.434V12.792ZM13.8,14.348v2.046a3.653,3.653,0,0,1-.1,1.023.718.718,0,0,1-.743.588,1.269,1.269,0,0,1-.953-.574v.5h-.939V11.027h.939v2.256a1.247,1.247,0,0,1,.953-.56.718.718,0,0,1,.743.588A3.725,3.725,0,0,1,13.8,14.348Zm3.518,1.807v.126a4.677,4.677,0,0,1-.028.6,1.317,1.317,0,0,1-.21.56,1.265,1.265,0,0,1-1.121.56,1.347,1.347,0,0,1-1.135-.532,1.97,1.97,0,0,1-.294-1.2V14.46a2.045,2.045,0,0,1,.28-1.2,1.332,1.332,0,0,1,1.121-.532,1.258,1.258,0,0,1,1.093.532,2.047,2.047,0,0,1,.294,1.2v1.065H15.458v.911q0,.715.477.715a.406.406,0,0,0,.42-.364q0-.014.007-.1t.007-.231v-.3ZM11,4.61V6.8q0,.715-.448.715T10.1,6.8V4.61q0-.729.448-.729T11,4.61Zm7.47,9.99a17.918,17.918,0,0,0-.266-3.643,1.917,1.917,0,0,0-.6-1.03,1.893,1.893,0,0,0-1.065-.483,57.661,57.661,0,0,0-5.774-.21A57.467,57.467,0,0,0,5,9.444a1.871,1.871,0,0,0-1.072.483,1.935,1.935,0,0,0-.6,1.03,17.529,17.529,0,0,0-.28,3.643,17.164,17.164,0,0,0,.28,3.643,1.969,1.969,0,0,0,.6,1.023,1.838,1.838,0,0,0,1.058.49q1.92.21,5.774.21t5.774-.21a1.838,1.838,0,0,0,1.058-.49,1.969,1.969,0,0,0,.6-1.023A17.164,17.164,0,0,0,18.472,14.6ZM7.89,5.478,9.152,1.331H8.1L7.386,4.063,6.643,1.331H5.55q.1.322.322.967l.336.967a19.216,19.216,0,0,1,.645,2.214V8.295H7.89Zm4.05,1.135V4.792a2.076,2.076,0,0,0-.294-1.219,1.3,1.3,0,0,0-1.093-.532,1.258,1.258,0,0,0-1.093.532,2.076,2.076,0,0,0-.294,1.219V6.613A2.076,2.076,0,0,0,9.46,7.832a1.258,1.258,0,0,0,1.093.532,1.3,1.3,0,0,0,1.093-.532A2,2,0,0,0,11.941,6.613Zm2.537,1.681h.939V3.11h-.939V7.076q-.308.434-.589.434-.21,0-.224-.224a2.118,2.118,0,0,1-.014-.364V3.11h-.939V7.216a2.614,2.614,0,0,0,.084.771.59.59,0,0,0,.6.378,1.566,1.566,0,0,0,1.079-.631Zm7.049-4.259V17.486c0,1.112.181,2.65-.608,3.439s-2.316.6-3.428.6H4.036c-1.112,0-2.609.193-3.4-.6S0,18.6,0,17.486V4.035C0,2.924-.167,1.4.622.609S2.924,0,4.036,0H17.49c1.112,0,2.64-.142,3.43.647S21.527,2.924,21.527,4.035Z" transform="translate(0.015 0.018)" fill="#a6aaad"/></svg>