<svg xmlns="http://www.w3.org/2000/svg" width="193.793" height="50.505" viewBox="0 0 193.793 50.505"><path d="M201.489,61.334h-6.743v9.837h-1.759V47.978h8.5c4.006,0,7,2.409,7,6.678,0,4.234-3,6.677-7,6.677m-.2-11.792h-6.548V59.77h6.548c3.225,0,5.439-1.632,5.439-5.114s-2.215-5.115-5.439-5.115" transform="translate(-137.083 -34.079)" fill="#fff"/><path d="M267.951,51.007V71.171h-1.759V47.978h1.759l13.388,20.1v-20.1H283.1V71.171h-1.759Z" transform="translate(-189.081 -34.079)" fill="#fff"/><path d="M353.4,71.171h-1.758v-9.61L344.8,47.977h1.89l5.9,11.726,5.766-11.726h1.889L353.4,61.561Z" transform="translate(-244.915 -34.078)" fill="#fff"/><path d="M434.6,64.065v7.427h-7.72V48.43h9.9a15.978,15.978,0,0,1,3.453.375,8.8,8.8,0,0,1,3.03,1.27,6.69,6.69,0,0,1,2.15,2.378,8.851,8.851,0,0,1,.016,7.381,7,7,0,0,1-2.117,2.443,8.739,8.739,0,0,1-3.03,1.368,14.491,14.491,0,0,1-3.5.423Zm0-9.61v3.713h1.632a3.075,3.075,0,0,0,1.611-.44,1.589,1.589,0,0,0,.734-1.482,1.8,1.8,0,0,0-.2-.9,1.419,1.419,0,0,0-.538-.538,2.478,2.478,0,0,0-.765-.277,4.493,4.493,0,0,0-.846-.078Z" transform="translate(-303.223 -34.4)" fill="#248ab6"/><path d="M503.8,48.429h9.935a16.847,16.847,0,0,1,3.371.342,8.528,8.528,0,0,1,3,1.205,6.543,6.543,0,0,1,2.134,2.312,7.338,7.338,0,0,1,.814,3.632,6.527,6.527,0,0,1-4.028,6.221l5.852,9.349h-8.91l-4.417-8.244h-.228v8.245H503.8Zm7.459,9.74h1.52a6.172,6.172,0,0,0,.855-.065,2.633,2.633,0,0,0,.872-.277,1.964,1.964,0,0,0,.679-.587,1.643,1.643,0,0,0,.274-.994,1.827,1.827,0,0,0-.226-.977,1.461,1.461,0,0,0-.582-.538,2.311,2.311,0,0,0-.777-.228,6.659,6.659,0,0,0-.777-.049h-1.838Z" transform="translate(-357.858 -34.4)" fill="#248ab6"/><path d="M580.485,58.234a12.341,12.341,0,0,1,.977-5,11.111,11.111,0,0,1,2.688-3.795,11.958,11.958,0,0,1,4.055-2.409,15.673,15.673,0,0,1,10.164,0,12.142,12.142,0,0,1,4.072,2.409,11.017,11.017,0,0,1,2.7,3.795,12.34,12.34,0,0,1,.978,5,12.688,12.688,0,0,1-.978,5.05,11.4,11.4,0,0,1-2.7,3.893,12.147,12.147,0,0,1-4.072,2.492,15.122,15.122,0,0,1-10.164,0,11.966,11.966,0,0,1-4.057-2.494,11.5,11.5,0,0,1-2.688-3.893,12.687,12.687,0,0,1-.977-5.05m8.242,0a6.1,6.1,0,0,0,.342,2.085,5.012,5.012,0,0,0,.944,1.632,4.128,4.128,0,0,0,1.45,1.059,4.455,4.455,0,0,0,1.824.375,4.3,4.3,0,0,0,3.257-1.434,4.871,4.871,0,0,0,.962-1.632,6.1,6.1,0,0,0,.342-2.085A5.859,5.859,0,0,0,597.5,56.2a4.379,4.379,0,0,0-.962-1.563,4.476,4.476,0,0,0-3.257-1.352,4.632,4.632,0,0,0-1.824.359,4.259,4.259,0,0,0-1.45.993,4.493,4.493,0,0,0-.944,1.563,5.86,5.86,0,0,0-.342,2.036" transform="translate(-412.331 -32.804)" fill="#248ab6"/><path d="M21.869,0,0,12.627V37.879L21.869,50.5,43.737,37.878V12.626ZM36.525,27.411a2.956,2.956,0,0,1-.253,1.214A3.236,3.236,0,0,1,34.587,30.3a3.03,3.03,0,0,1-1.243.253H22.15l-8-4.74H31.769v-5.05H12.107V38.681l-4.9-2.894L7.266,19.2a2.875,2.875,0,0,1,.267-1.243,3.3,3.3,0,0,1,.707-1,3.419,3.419,0,0,1,1.029-.68,3.172,3.172,0,0,1,1.256-.253H33.344a3.079,3.079,0,0,1,1.243.253,3.239,3.239,0,0,1,1.684,1.679,3.023,3.023,0,0,1,.253,1.243Z" transform="translate(0 0)" fill="#248ab6"/><rect width="193.79" height="50.504" transform="translate(0.001 0.001)" fill="none"/><rect width="193.789" height="50.504" transform="translate(0.001 0.001)" fill="none"/></svg>